# xmcd
#
# Track frame offsets: 
#        150
#        20181
#        43058
#        67460
#        90191
#        110763
#        137900
#        158355
#        178620
#        207491
#
# Disc length: 2942 seconds
#
# Revision: 1
# Processed by: cddbd v1.5.2PL0 Copyright (c) Steve Scherf et al.
# Submitted via: ExactAudioCopy v1.3
#
DISCID=900b7c0a
DTITLE=The Pat McManus Band - Dark Emerald Highway
DYEAR=2013
DGENRE=Blues Rock
TTITLE0=S Before X
TTITLE1=Transformations
TTITLE2=Loving Kind
TTITLE3=Lets Turn It Up
TTITLE4=Lazy Days
TTITLE5=Cold Town
TTITLE6=Fallen Angel
TTITLE7=Shame On You
TTITLE8=Belfast Boy
TTITLE9=The Bolt
EXTD=YEAR: 2013
EXTT0=
EXTT1=
EXTT2=
EXTT3=
EXTT4=
EXTT5=
EXTT6=
EXTT7=
EXTT8=
EXTT9=
PLAYORDER=
